HIERARCHY
ROOT joint_Root
{
	OFFSET 0.0 0.0 0.0
	CHANNELS 6 Xposition Yposition Zposition Zrotation Xrotation Yrotation 
	JOINT Hips
	{
		OFFSET -17.1583 93.1646 452.98
		CHANNELS 6 Xposition Yposition Zposition Zrotation Xrotation Yrotation 
		JOINT Spine
		{
			OFFSET 15.7357 0.0 0.0
			CHANNELS 6 Xposition Yposition Zposition Zrotation Xrotation Yrotation 
			JOINT Chest
			{
				OFFSET 8.98455 -0.406207 0.0
				CHANNELS 6 Xposition Yposition Zposition Zrotation Xrotation Yrotation 
				JOINT Neck
				{
					OFFSET 16.3773 0.0 0.0
					CHANNELS 6 Xposition Yposition Zposition Zrotation Xrotation Yrotation 
					JOINT Head
					{
						OFFSET 6.45672 0.0 0.0
						CHANNELS 6 Xposition Yposition Zposition Zrotation Xrotation Yrotation 
						End Site
						{
							OFFSET 0.0 0.0 0.0
						}
					}
				}
				JOINT Shoulder_L
				{
					OFFSET 12.9942 -0.242716 4.98039
					CHANNELS 6 Xposition Yposition Zposition Zrotation Xrotation Yrotation 
					JOINT UpperArm_L
					{
						OFFSET 5.34809 0.0 0.0
						CHANNELS 6 Xposition Yposition Zposition Zrotation Xrotation Yrotation 
						JOINT LowerArm_L
						{
							OFFSET 24.3286 1.87007e-05 0.0
							CHANNELS 6 Xposition Yposition Zposition Zrotation Xrotation Yrotation 
							JOINT Hand_L
							{
								OFFSET 22.2916 0.0 0.0
								CHANNELS 6 Xposition Yposition Zposition Zrotation Xrotation Yrotation 
								End Site
								{
									OFFSET 0.0 0.0 0.0
								}
							}
						}
					}
				}
				JOINT Shoulder_R
				{
					OFFSET 12.9945 -0.242716 -4.98039
					CHANNELS 6 Xposition Yposition Zposition Zrotation Xrotation Yrotation 
					JOINT UpperArm_R
					{
						OFFSET -5.34813 0.0 0.0
						CHANNELS 6 Xposition Yposition Zposition Zrotation Xrotation Yrotation 
						JOINT LowerArm_R
						{
							OFFSET -24.3289 0.000322201 0.0
							CHANNELS 6 Xposition Yposition Zposition Zrotation Xrotation Yrotation 
							JOINT Hand_R
							{
								OFFSET -22.2915 -0.000108084 0.0
								CHANNELS 6 Xposition Yposition Zposition Zrotation Xrotation Yrotation 
								End Site
								{
									OFFSET 0.0 0.0 0.0
								}
							}
						}
					}
				}
			}
		}
		JOINT UpperLeg_L
		{
			OFFSET -2.19248 -6.46944 0.0
			CHANNELS 6 Xposition Yposition Zposition Zrotation Xrotation Yrotation 
			JOINT LowerLeg_L
			{
				OFFSET 39.0811 0.0 -1.23785e-05
				CHANNELS 6 Xposition Yposition Zposition Zrotation Xrotation Yrotation 
				JOINT Foot_L
				{
					OFFSET 40.9854 0.0 -1.26872e-05
					CHANNELS 6 Xposition Yposition Zposition Zrotation Xrotation Yrotation 
					JOINT Toes_L
					{
						OFFSET 11.7543 0.0 0.0
						CHANNELS 6 Xposition Yposition Zposition Zrotation Xrotation Yrotation 
						End Site
						{
							OFFSET 0.0 0.0 0.0
						}
					}
				}
			}
		}
		JOINT UpperLeg_R
		{
			OFFSET -2.19251 6.46944 0.0
			CHANNELS 6 Xposition Yposition Zposition Zrotation Xrotation Yrotation 
			JOINT LowerLeg_R
			{
				OFFSET -39.0811 -0.00228153 -0.0401928
				CHANNELS 6 Xposition Yposition Zposition Zrotation Xrotation Yrotation 
				JOINT Foot_R
				{
					OFFSET -40.9854 0.0 0.0
					CHANNELS 6 Xposition Yposition Zposition Zrotation Xrotation Yrotation 
					JOINT Toes_R
					{
						OFFSET -11.7543 0.0 0.0
						CHANNELS 6 Xposition Yposition Zposition Zrotation Xrotation Yrotation 
						End Site
						{
							OFFSET 0.0 0.0 0.0
						}
					}
				}
			}
		}
	}
}
MOTION
Frames:	4
Frame Time:	0.0333333
0.000000 0.000000 0.000000 0.000000 0.000000 -0.000000 -4.422750 91.781000 1.786890 84.643200 0.618614 2.792860 15.735700 0.000005 -0.000001 112.052000 88.231700 -112.657000 8.984550 -0.406207 -0.000000 -4.481270 1.391330 -1.156940 16.377300 -0.000001 -0.000001 12.737100 -6.651960 -4.890340 6.456720 -0.000001 -0.000000 12.847700 -13.326500 0.439260 12.994200 -0.242716 4.980390 -92.206900 5.978130 -69.695200 5.348090 -0.000007 -0.000001 -73.571700 16.845500 -11.541400 24.328600 0.000019 0.000005 49.670700 -46.622200 -121.677000 22.291600 -0.000001 0.000005 44.748600 4.889690 9.582770 12.994500 -0.242716 -4.980390 88.434200 5.123490 -72.981000 -5.348130 -0.000001 -0.000004 -75.340400 34.913700 -0.243180 -24.328900 0.000322 -0.000009 2.763200 8.242190 -18.613500 -22.291500 -0.000108 -0.000004 -0.774403 5.230840 1.933740 -2.192480 -6.469440 -0.000000 -171.508000 1.859060 -3.186790 39.081100 -0.000007 -0.000012 0.280567 -0.546141 27.191300 40.985400 -0.000006 -0.000013 -1.757360 8.401640 -76.468600 11.754300 -0.000000 0.000003 -0.000106 0.169395 -9.706160 -2.192510 6.469440 -0.000001 -170.402000 8.234890 -176.016000 -39.081100 -0.002282 -0.040193 0.054655 -0.194970 14.747900 -40.985400 0.000008 0.000006 2.778080 3.715210 -71.439500 -11.754300 -0.000006 -0.000006 -0.010615 0.275847 -5.365200
0.000000 0.000000 0.000000 0.000000 0.000000 -0.000000 -4.417120 91.777000 1.827790 84.637000 0.614350 2.816080 15.735700 0.000005 -0.000001 112.330000 88.203400 -112.924000 8.984550 -0.406207 -0.000000 -4.435330 1.427260 -1.133110 16.377300 -0.000001 -0.000001 12.711000 -6.628480 -4.907880 6.456720 -0.000001 -0.000000 12.830100 -13.312800 0.447912 12.994200 -0.242716 4.980390 -92.220200 6.017400 -69.704600 5.348090 -0.000007 -0.000001 -73.590300 16.696300 -11.545100 24.328600 0.000019 0.000005 49.768100 -46.576500 -121.569000 22.291600 -0.000001 0.000005 44.714600 4.884350 9.688420 12.994500 -0.242716 -4.980390 88.428300 5.143040 -72.981600 -5.348130 -0.000001 -0.000004 -75.428900 34.986000 -0.176778 -24.328900 0.000322 -0.000009 2.718110 8.113860 -18.598100 -22.291500 -0.000108 -0.000004 -0.889520 5.231380 1.919800 -2.192480 -6.469440 -0.000000 -171.503000 1.828060 -3.110220 39.081100 -0.000007 -0.000012 0.280514 -0.546997 27.150400 40.985400 -0.000006 -0.000013 -1.631850 8.386460 -76.471100 11.754300 -0.000000 0.000003 -0.000020 0.167959 -9.764470 -2.192510 6.469440 -0.000001 -170.404000 8.227880 -175.962000 -39.081100 -0.002282 -0.040193 0.053577 -0.191085 14.732500 -40.985400 0.000008 0.000006 2.766270 3.710060 -71.440100 -11.754300 -0.000006 -0.000006 -0.010880 0.277764 -5.286710
0.000000 0.000000 0.000000 0.000000 0.000000 -0.000000 -4.414250 91.784800 1.847230 84.671500 0.623325 2.755220 15.735700 0.000005 -0.000001 112.293000 88.206900 -112.886000 8.984550 -0.406207 -0.000000 -4.441050 1.422390 -1.131440 16.377300 -0.000001 -0.000001 12.694000 -6.589830 -4.923030 6.456720 -0.000001 -0.000000 12.758200 -13.238800 0.440206 12.994200 -0.242716 4.980390 -92.206100 5.976570 -69.696900 5.348090 -0.000007 -0.000001 -73.684100 16.593600 -11.452000 24.328600 0.000019 0.000005 49.373000 -46.408900 -121.856000 22.291600 -0.000001 0.000005 44.532400 4.889710 9.582430 12.994500 -0.242716 -4.980390 88.423600 5.163690 -72.997900 -5.348130 -0.000001 -0.000004 -75.471500 35.000100 -0.155387 -24.328900 0.000322 -0.000009 2.715490 8.132070 -18.542900 -22.291500 -0.000108 -0.000004 -0.887004 5.233950 1.853140 -2.192480 -6.469440 -0.000000 -171.520000 1.855660 -3.136830 39.081100 -0.000007 -0.000012 0.268234 -0.524171 27.100700 40.985400 -0.000006 -0.000013 -1.881260 8.474080 -76.363300 11.754300 -0.000000 0.000003 0.000041 0.166930 -9.806280 -2.192510 6.469440 -0.000001 -170.442000 8.191430 -175.997000 -39.081100 -0.002282 -0.040193 0.052544 -0.187420 14.712700 -40.985400 0.000008 0.000006 2.633720 3.691130 -71.427300 -11.754300 -0.000006 -0.000006 -0.010626 0.275925 -5.361970
0.000000 0.000000 0.000000 0.000000 0.000000 -0.000000 -4.407700 91.782300 1.878560 84.687900 0.639505 2.695060 15.735700 0.000005 -0.000001 112.343000 88.213400 -112.922000 8.984550 -0.406207 -0.000000 -4.454320 1.418910 -1.102390 16.377300 -0.000001 -0.000001 12.632800 -6.541700 -4.920890 6.456720 -0.000001 -0.000000 12.727100 -13.170800 0.346644 12.994200 -0.242716 4.980390 -92.228500 6.037440 -69.696100 5.348090 -0.000007 -0.000001 -73.667600 16.370800 -11.443300 24.328600 0.000019 0.000005 48.741600 -46.160300 -122.323000 22.291600 -0.000001 0.000005 44.292300 4.903050 9.316730 12.994500 -0.242716 -4.980390 88.429200 5.139060 -72.978500 -5.348130 -0.000001 -0.000004 -75.501000 34.986500 -0.145979 -24.328900 0.000322 -0.000009 2.778440 8.325560 -18.535800 -22.291500 -0.000108 -0.000004 -0.870532 5.229850 1.959490 -2.192480 -6.469440 -0.000000 -171.541000 1.886990 -3.161980 39.081100 -0.000007 -0.000012 0.269479 -0.527534 27.059700 40.985400 -0.000006 -0.000013 -1.790320 8.427100 -76.354100 11.754300 -0.000000 0.000003 0.000221 0.163822 -9.932470 -2.192510 6.469440 -0.000001 -170.463000 8.246300 -176.035000 -39.081100 -0.002282 -0.040193 0.052310 -0.186646 14.704000 -40.985400 0.000008 0.000006 2.635160 3.724090 -71.415000 -11.754300 -0.000006 -0.000006 -0.010570 0.275514 -5.378820
